<svg width="16" height="16" viewBox="0 0 16 16" fill="none" xmlns="http://www.w3.org/2000/svg">
<path d="M9.9372 7.55487L8.05644 5.67362C7.56745 5.18449 7.56745 4.3881 8.05644 3.89897L9.9372 2.01772C10.4262 1.5286 11.2224 1.5286 11.7114 2.01772L13.5921 3.89897C14.0811 4.3881 14.0811 5.18449 13.5921 5.67362L11.7114 7.55487C11.2161 8.04399 10.4199 8.04399 9.9372 7.55487Z" stroke="white" stroke-width="0.940625" stroke-miterlimit="10" stroke-linecap="round" stroke-linejoin="round"/>
<path d="M7.6867 13.5686H3.29827C2.60866 13.5686 2.04443 13.0042 2.04443 12.3144V7.9248H7.6867V13.5686Z" stroke="white" stroke-width="0.940625" stroke-miterlimit="10" stroke-linecap="round" stroke-linejoin="round"/>
<path d="M7.6867 7.92476H2.04443V3.53517C2.04443 2.84538 2.60866 2.28101 3.29827 2.28101H7.6867V7.92476Z" stroke="white" stroke-width="0.940625" stroke-miterlimit="10" stroke-linecap="round" stroke-linejoin="round"/>
<path d="M12.075 13.5686H7.68652V7.9248H13.3288V12.3144C13.3288 13.0042 12.7646 13.5686 12.075 13.5686Z" stroke="white" stroke-width="0.940625" stroke-miterlimit="10" stroke-linecap="round" stroke-linejoin="round"/>
</svg>
