<svg width="21" height="21" viewBox="0 0 21 21" fill="none" xmlns="http://www.w3.org/2000/svg">
<path d="M10.3111 1.82605C9.39142 1.82605 8.63892 2.57855 8.63892 3.49827V6.14874L10.3111 7.82097L11.9834 6.14874V3.49827C11.9834 3.03841 11.7994 2.62036 11.4901 2.31099C11.1891 2.00999 10.771 1.82605 10.3111 1.82605Z" stroke="white" stroke-width="1.25417" stroke-miterlimit="10" stroke-linecap="round" stroke-linejoin="round"/>
<path d="M8.63892 14.2256V16.876C8.63892 17.7958 9.39142 18.5483 10.3111 18.5483C11.2309 18.5483 11.9834 17.7958 11.9834 16.876V14.2256L10.3111 12.5533L8.63892 14.2256Z" stroke="white" stroke-width="1.25417" stroke-miterlimit="10" stroke-linecap="round" stroke-linejoin="round"/>
<path d="M6.27277 8.51489H3.6223C2.70257 8.51489 1.95007 9.26739 1.95007 10.1871C1.95007 11.1068 2.70257 11.8593 3.6223 11.8593H6.27277L7.94499 10.1871L6.27277 8.51489Z" stroke="white" stroke-width="1.25417" stroke-miterlimit="10" stroke-linecap="round" stroke-linejoin="round"/>
<path d="M17.0002 8.51489H14.3497L12.6775 10.1871L14.3497 11.8593H17.0002C17.46 11.8593 17.8781 11.6754 18.1791 11.366C18.4885 11.065 18.6724 10.647 18.6724 10.1871C18.6724 9.26739 17.9199 8.51489 17.0002 8.51489Z" stroke="white" stroke-width="1.25417" stroke-miterlimit="10" stroke-linecap="round" stroke-linejoin="round"/>
<path d="M16.2225 13.7322L12.6774 10.1871L10.3112 12.5533L13.8563 16.0984C14.5084 16.7506 15.5703 16.7506 16.2225 16.0984C16.8746 15.4463 16.8746 14.3844 16.2225 13.7322Z" stroke="white" stroke-width="1.25417" stroke-miterlimit="10" stroke-linecap="round" stroke-linejoin="round"/>
<path d="M6.76609 4.27578C6.44 3.94969 6.01359 3.78247 5.57881 3.78247C5.15239 3.78247 4.72597 3.94969 4.39989 4.27578C3.74772 4.92794 3.74772 5.9898 4.39989 6.64197L7.945 10.1871L10.3112 7.82089L6.76609 4.27578Z" stroke="white" stroke-width="1.25417" stroke-miterlimit="10" stroke-linecap="round" stroke-linejoin="round"/>
<path d="M4.39989 16.0985C3.74772 15.4463 3.74772 14.3845 4.39989 13.7323L13.8563 4.27587C14.5085 3.6237 15.5703 3.6237 16.2225 4.27587C16.8747 4.92803 16.8747 5.9899 16.2225 6.64206L6.76609 16.0985C6.11392 16.7506 5.05206 16.7506 4.39989 16.0985Z" stroke="white" stroke-width="1.25417" stroke-miterlimit="10" stroke-linecap="round" stroke-linejoin="round"/>
</svg>
