<svg width="53" height="104" viewBox="0 0 53 104" fill="none" xmlns="http://www.w3.org/2000/svg">
<path d="M0.813875 101.563C0.813875 102.408 1.49912 103.095 2.34378 103.07C8.5199 102.885 14.6154 101.578 20.3318 99.2105C26.5198 96.6473 32.1423 92.8905 36.8783 88.1544C41.6144 83.4184 45.3712 77.7958 47.9343 71.6079C50.4975 65.4199 51.8167 58.7877 51.8167 52.0899C51.8166 45.3921 50.4974 38.7599 47.9342 32.572C45.3711 26.3841 41.6142 20.7616 36.8782 16.0255C32.1421 11.2895 26.5196 7.53266 20.3316 4.96955C14.6152 2.60177 8.51965 1.29553 2.34353 1.11022C1.49887 1.08488 0.813633 1.77232 0.813637 2.61736V2.61736C0.813641 3.4624 1.4989 4.14489 2.34351 4.17185C8.11768 4.35617 13.8154 5.58279 19.1605 7.79678C24.9772 10.2061 30.2624 13.7375 34.7143 18.1894C39.1662 22.6413 42.6977 27.9264 45.107 33.7431C47.5164 39.5597 48.7565 45.794 48.7565 52.0899C48.7565 58.3859 47.5164 64.6201 45.1071 70.4368C42.6978 76.2535 39.1663 81.5387 34.7145 85.9906C30.2626 90.4425 24.9774 93.9739 19.1607 96.3832C13.8156 98.5973 8.11791 99.8239 2.34374 100.008C1.49913 100.035 0.813875 100.718 0.813875 101.563V101.563Z" fill="url(#paint0_linear_1_3264)"/>
<path d="M0.813875 101.563C0.813875 102.408 1.49912 103.095 2.34378 103.07C8.5199 102.885 14.6154 101.578 20.3318 99.2105C26.5198 96.6473 32.1423 92.8905 36.8783 88.1544C41.6144 83.4184 45.3712 77.7958 47.9343 71.6079C50.4975 65.4199 51.8167 58.7877 51.8167 52.0899C51.8166 45.3921 50.4974 38.7599 47.9342 32.572C45.3711 26.3841 41.6142 20.7616 36.8782 16.0255C32.1421 11.2895 26.5196 7.53266 20.3316 4.96955C14.6152 2.60177 8.51965 1.29553 2.34353 1.11022C1.49887 1.08488 0.813633 1.77232 0.813637 2.61736V2.61736C0.813641 3.4624 1.4989 4.14489 2.34351 4.17185C8.11768 4.35617 13.8154 5.58279 19.1605 7.79678C24.9772 10.2061 30.2624 13.7375 34.7143 18.1894C39.1662 22.6413 42.6977 27.9264 45.107 33.7431C47.5164 39.5597 48.7565 45.794 48.7565 52.0899C48.7565 58.3859 47.5164 64.6201 45.1071 70.4368C42.6978 76.2535 39.1663 81.5387 34.7145 85.9906C30.2626 90.4425 24.9774 93.9739 19.1607 96.3832C13.8156 98.5973 8.11791 99.8239 2.34374 100.008C1.49913 100.035 0.813875 100.718 0.813875 101.563V101.563Z" stroke="white" stroke-opacity="0.1" stroke-width="0.836111"/>
<path d="M0.813875 101.563C0.813875 102.408 1.49912 103.095 2.34378 103.07C8.5199 102.885 14.6154 101.578 20.3318 99.2105C26.5198 96.6473 32.1423 92.8905 36.8783 88.1544C41.6144 83.4184 45.3712 77.7958 47.9343 71.6079C50.4975 65.4199 51.8167 58.7877 51.8167 52.0899C51.8166 45.3921 50.4974 38.7599 47.9342 32.572C45.3711 26.3841 41.6142 20.7616 36.8782 16.0255C32.1421 11.2895 26.5196 7.53266 20.3316 4.96955C14.6152 2.60177 8.51965 1.29553 2.34353 1.11022C1.49887 1.08488 0.813633 1.77232 0.813637 2.61736V2.61736C0.813641 3.4624 1.4989 4.14489 2.34351 4.17185C8.11768 4.35617 13.8154 5.58279 19.1605 7.79678C24.9772 10.2061 30.2624 13.7375 34.7143 18.1894C39.1662 22.6413 42.6977 27.9264 45.107 33.7431C47.5164 39.5597 48.7565 45.794 48.7565 52.0899C48.7565 58.3859 47.5164 64.6201 45.1071 70.4368C42.6978 76.2535 39.1663 81.5387 34.7145 85.9906C30.2626 90.4425 24.9774 93.9739 19.1607 96.3832C13.8156 98.5973 8.11791 99.8239 2.34374 100.008C1.49913 100.035 0.813875 100.718 0.813875 101.563V101.563Z" stroke="url(#paint1_linear_1_3264)" stroke-width="0.836111"/>
<defs>
<linearGradient id="paint0_linear_1_3264" x1="-33.9607" y1="1.08728" x2="51.8167" y2="103.093" gradientUnits="userSpaceOnUse">
<stop stop-color="white"/>
<stop offset="0.75" stop-color="#285299"/>
</linearGradient>
<linearGradient id="paint1_linear_1_3264" x1="0.813876" y1="-3.69423" x2="0.813876" y2="103.093" gradientUnits="userSpaceOnUse">
<stop stop-color="#2737CF" stop-opacity="0"/>
<stop offset="1" stop-color="#BDFCFE"/>
</linearGradient>
</defs>
</svg>
