<svg width="11" height="11" viewBox="0 0 11 11" fill="none" xmlns="http://www.w3.org/2000/svg">
<g clip-path="url(#clip0_2073_677)">
<path d="M1.78579 5.49677C1.50053 5.49677 1.27026 5.69013 1.27026 5.92968L1.27026 9.1044C1.27026 9.34394 1.50053 9.53731 1.78579 9.53731L7.62845 9.53731C7.91371 9.53731 8.14398 9.34394 8.14398 9.1044L8.14398 7.26193L8.14398 5.92968C8.14398 5.69013 7.91371 5.49677 7.62845 5.49677L1.78579 5.49677Z" stroke="white" stroke-width="0.940625" stroke-miterlimit="10" stroke-linecap="round" stroke-linejoin="round"/>
<path d="M7.62836 5.4968L7.62836 5.96712L7.62836 5.4968ZM8.14389 5.92972L8.6142 5.92972L8.14389 5.92972ZM9.19003 5.87002L9.60379 6.09362L9.60379 6.09362L9.19003 5.87002ZM3.47109 2.18448L3.05732 1.96089L3.05732 1.96089L3.47109 2.18448ZM4.10585 2.07998L3.90301 2.50431L3.90301 2.50431L4.10585 2.07998ZM9.31439 4.56973L9.51723 4.14541L9.51723 4.14541L9.31439 4.56973ZM9.59879 5.1136L9.18503 4.89001L9.18503 4.89001L9.59879 5.1136ZM1.92688 5.04208L2.34065 5.26568L2.34065 5.26568L1.92688 5.04208ZM8.99538 6.23023L8.79255 6.65455L9.19636 6.84758L9.40915 6.45382L8.99538 6.23023ZM2.86768 3.30111L2.45391 3.07752L2.21897 3.5123L2.66485 3.72543L2.86768 3.30111ZM1.94678 5.4968L1.55077 5.7505L1.68953 5.96712H1.94678V5.4968ZM8.14389 7.80594H7.67358V9.66555L8.55765 8.02954L8.14389 7.80594ZM8.12549 5.81441L7.67845 5.96053L8.12549 5.81441ZM9.39286 5.4457L3.26516 2.51658L2.85949 3.36523L8.9872 6.29435L9.39286 5.4457ZM3.47609 3.1645L3.88485 2.40807L3.05732 1.96089L2.64856 2.71731L3.47609 3.1645ZM3.88485 2.40807C3.86647 2.44208 3.8424 2.46309 3.82522 2.47386C3.80927 2.48386 3.801 2.48424 3.80585 2.48345C3.81032 2.48271 3.82234 2.48167 3.84085 2.48455C3.85901 2.48737 3.88043 2.49351 3.90301 2.50431L4.30868 1.65566C4.10238 1.55704 3.87085 1.51946 3.65306 1.55531C3.43795 1.59073 3.19346 1.70896 3.05732 1.96089L3.88485 2.40807ZM3.90301 2.50431L9.11156 4.99406L9.51723 4.14541L4.30868 1.65566L3.90301 2.50431ZM9.11156 4.99406C9.16004 5.01723 9.17353 5.04173 9.17153 5.03792C9.16997 5.03492 9.16244 5.01922 9.16117 4.99123C9.15982 4.96122 9.1663 4.92467 9.18503 4.89001L10.0126 5.33719C10.152 5.07915 10.111 4.80469 10.0051 4.60205C9.90022 4.40153 9.72305 4.2438 9.51723 4.14541L9.11156 4.99406ZM9.18503 4.89001L8.77627 5.64643L9.60379 6.09362L10.0126 5.33719L9.18503 4.89001ZM2.34065 5.26568L3.47609 3.1645L2.64856 2.71731L1.51312 4.81849L2.34065 5.26568ZM8.77627 5.64643L8.58162 6.00663L9.40915 6.45382L9.60379 6.09362L8.77627 5.64643ZM3.28144 3.5247L3.47609 3.1645L2.64856 2.71731L2.45391 3.07752L3.28144 3.5247ZM2.3428 5.2431C2.3418 5.24153 2.34348 5.24341 2.3438 5.24933C2.34396 5.25227 2.34372 5.25559 2.34298 5.25895C2.34221 5.26239 2.34116 5.26472 2.34065 5.26568L1.51312 4.81849C1.34587 5.12799 1.37821 5.48115 1.55077 5.7505L2.3428 5.2431ZM7.67358 5.92972V7.80594H8.6142V5.92972H7.67358ZM8.77627 5.64643L7.73013 7.58235L8.55765 8.02954L9.60379 6.09362L8.77627 5.64643ZM1.94678 5.96712H7.46106V5.02649H1.94678V5.96712ZM7.46106 5.96712H7.62836V5.02649H7.46106V5.96712ZM7.6639 5.07248L3.07051 2.87678L2.66485 3.72543L7.25823 5.92113L7.6639 5.07248ZM9.19822 5.8059L8.32832 5.39008L7.92266 6.23873L8.79255 6.65455L9.19822 5.8059ZM7.62836 5.96712C7.65925 5.96712 7.67916 5.97592 7.68765 5.98143C7.69683 5.98738 7.6862 5.98424 7.67845 5.96053L8.57253 5.66828C8.43732 5.25464 8.02776 5.02649 7.62836 5.02649L7.62836 5.96712ZM7.67845 5.96053C7.67538 5.95112 7.67358 5.94051 7.67358 5.92972L8.6142 5.92972C8.6142 5.83903 8.59959 5.75109 8.57253 5.66828L7.67845 5.96053Z" fill="white"/>
<path d="M7.62836 5.49675L7.62836 5.96707L7.62836 5.49675ZM9.19003 5.86998L9.60379 6.09357C9.66501 5.98028 9.6771 5.84684 9.63724 5.72439C9.59738 5.60194 9.50905 5.50119 9.39286 5.44565L9.19003 5.86998ZM3.06232 2.94086L3.26516 2.51653C3.03897 2.40841 2.76774 2.49671 2.64856 2.71727L3.06232 2.94086ZM8.99538 6.23018L8.79255 6.6545L9.19636 6.84753L9.40914 6.45377L8.99538 6.23018ZM2.86768 3.30106L2.45391 3.07747L2.21896 3.51225L2.66484 3.72539L2.86768 3.30106ZM7.46106 5.49675L7.25823 5.92108L7.35443 5.96707H7.46106V5.49675ZM8.12549 5.81436L7.67845 5.96048L7.74101 6.15185L7.92266 6.23868L8.12549 5.81436ZM9.39286 5.44565L3.26516 2.51653L2.85949 3.36518L8.9872 6.2943L9.39286 5.44565ZM8.77626 5.64638L8.58162 6.00659L9.40914 6.45377L9.60379 6.09357L8.77626 5.64638ZM3.28144 3.52465L3.47609 3.16445L2.64856 2.71727L2.45391 3.07747L3.28144 3.52465ZM7.46106 5.96707H7.62836V5.02644H7.46106V5.96707ZM7.6639 5.07243L3.07051 2.87673L2.66484 3.72539L7.25823 5.92108L7.6639 5.07243ZM9.19821 5.80585L8.32832 5.39003L7.92266 6.23868L8.79255 6.6545L9.19821 5.80585ZM7.62836 5.96707C7.65925 5.96707 7.67916 5.97587 7.68765 5.98138C7.69683 5.98733 7.6862 5.98419 7.67845 5.96048L8.57252 5.66823C8.43731 5.25459 8.02776 5.02644 7.62836 5.02644L7.62836 5.96707Z" fill="white"/>
<path d="M7.62836 5.49678L7.62836 5.96709L7.62836 5.49678ZM8.14389 5.9297L8.6142 5.9297L8.14389 5.9297ZM1.92688 5.04206L2.34065 5.26565L2.34065 5.26565L1.92688 5.04206ZM8.99538 6.2302L9.40915 6.4538L9.6441 6.01901L9.19822 5.80588L8.99538 6.2302ZM2.86768 3.30109L3.07051 2.87676L2.6667 2.68373L2.45391 3.0775L2.86768 3.30109ZM1.94678 5.49678L1.55077 5.75048L1.68953 5.96709H1.94678V5.49678ZM8.14389 7.80592H7.67358V9.66553L8.55765 8.02951L8.14389 7.80592ZM8.12549 5.81439L7.67845 5.96051L8.12549 5.81439ZM2.3428 5.24308C2.3418 5.24151 2.34348 5.24338 2.3438 5.24931C2.34396 5.25225 2.34372 5.25557 2.34298 5.25893C2.34221 5.26237 2.34116 5.2647 2.34065 5.26565L1.51312 4.81847C1.34587 5.12797 1.37821 5.48113 1.55077 5.75048L2.3428 5.24308ZM7.67358 5.9297V7.80592H8.6142V5.9297H7.67358ZM1.94678 5.96709H7.46106V5.02647H1.94678V5.96709ZM7.46106 5.96709H7.62836V5.02647H7.46106V5.96709ZM7.6639 5.07246L3.07051 2.87676L2.66485 3.72541L7.25823 5.92111L7.6639 5.07246ZM9.19822 5.80588L8.32832 5.39006L7.92266 6.23871L8.79255 6.65453L9.19822 5.80588ZM7.62836 5.96709C7.65925 5.96709 7.67916 5.9759 7.68765 5.98141C7.69683 5.98736 7.6862 5.98422 7.67845 5.96051L8.57253 5.66826C8.43732 5.25461 8.02776 5.02647 7.62836 5.02647L7.62836 5.96709ZM7.67845 5.96051C7.67538 5.9511 7.67358 5.94049 7.67358 5.9297L8.6142 5.9297C8.6142 5.83901 8.59959 5.75107 8.57253 5.66826L7.67845 5.96051ZM2.45391 3.0775L1.51312 4.81847L2.34065 5.26565L3.28144 3.52468L2.45391 3.0775ZM8.58162 6.00661L7.73013 7.58233L8.55765 8.02951L9.40915 6.4538L8.58162 6.00661Z" fill="white"/>
<path fill-rule="evenodd" clip-rule="evenodd" d="M9.18996 5.87002L3.06226 2.94091L3.47102 2.18448C3.56795 2.0051 3.85148 1.95842 4.10578 2.07998L9.31432 4.56973C9.56862 4.69129 9.69565 4.93422 9.59872 5.1136L9.18996 5.87002Z" stroke="white" stroke-width="0.940625" stroke-miterlimit="10" stroke-linecap="round" stroke-linejoin="round"/>
<path d="M3.31952 7.31501L2.65778 7.31502C2.48462 7.31502 2.34424 7.17464 2.34424 7.00147V6.82045C2.34424 6.64728 2.48461 6.50691 2.65778 6.50691L3.31952 6.5069C3.49268 6.5069 3.63306 6.64728 3.63306 6.82044V7.00147C3.63306 7.17463 3.49268 7.31501 3.31952 7.31501Z" stroke="white" stroke-width="0.940625" stroke-linecap="round"/>
<path d="M2.34424 8.52717H2.77385M7.06992 8.52717H6.85512M5.7811 8.52717H5.35149M4.27747 8.52717L3.84786 8.52716M5.13669 6.70892H6.85512" stroke="white" stroke-width="0.940625" stroke-linecap="round"/>
</g>
<defs>
<clipPath id="clip0_2073_677">
<rect width="10.0333" height="10.0333" fill="white" transform="translate(0.434082 0.758118)"/>
</clipPath>
</defs>
</svg>
