<svg width="11" height="11" viewBox="0 0 11 11" fill="none" xmlns="http://www.w3.org/2000/svg">
<g clip-path="url(#clip0_2073_730)">
<path d="M8.86237 8.30414H1.33737C1.10744 8.30414 0.919312 8.11602 0.919312 7.88609V3.70553C0.919312 3.4756 1.10744 3.28748 1.33737 3.28748H8.86237C9.0923 3.28748 9.28042 3.4756 9.28042 3.70553V7.88609C9.28042 8.11602 9.0923 8.30414 8.86237 8.30414Z" stroke="white" stroke-width="0.940625" stroke-linecap="round" stroke-linejoin="round"/>
<path d="M3.63672 7.04999H6.56311" stroke="white" stroke-width="0.940625" stroke-linecap="round" stroke-linejoin="round"/>
<path d="M8.02625 7.04999H8.03043" stroke="white" stroke-width="0.940625" stroke-linecap="round" stroke-linejoin="round"/>
<path d="M8.02625 4.54163H8.03043" stroke="white" stroke-width="0.940625" stroke-linecap="round" stroke-linejoin="round"/>
<path d="M6.56311 4.54163H6.56729" stroke="white" stroke-width="0.940625" stroke-linecap="round" stroke-linejoin="round"/>
<path d="M5.09985 4.54163H5.10403" stroke="white" stroke-width="0.940625" stroke-linecap="round" stroke-linejoin="round"/>
<path d="M3.63672 4.54163H3.6409" stroke="white" stroke-width="0.940625" stroke-linecap="round" stroke-linejoin="round"/>
<path d="M2.16931 4.54163H2.17767" stroke="white" stroke-width="0.940625" stroke-linecap="round" stroke-linejoin="round"/>
<path d="M8.02625 5.79584H8.03043" stroke="white" stroke-width="0.940625" stroke-linecap="round" stroke-linejoin="round"/>
<path d="M6.56311 5.79584H6.56729" stroke="white" stroke-width="0.940625" stroke-linecap="round" stroke-linejoin="round"/>
<path d="M5.09985 5.79584H5.10403" stroke="white" stroke-width="0.940625" stroke-linecap="round" stroke-linejoin="round"/>
<path d="M3.63672 5.79584H3.6409" stroke="white" stroke-width="0.940625" stroke-linecap="round" stroke-linejoin="round"/>
<path d="M2.16931 5.79584H2.17767" stroke="white" stroke-width="0.940625" stroke-linecap="round" stroke-linejoin="round"/>
<path d="M2.16931 7.04999H2.17767" stroke="white" stroke-width="0.940625" stroke-linecap="round" stroke-linejoin="round"/>
</g>
<defs>
<clipPath id="clip0_2073_730">
<rect width="10.0333" height="10.0333" fill="white" transform="translate(0.083252 0.779175)"/>
</clipPath>
</defs>
</svg>
