<svg width="11" height="11" viewBox="0 0 11 11" fill="none" xmlns="http://www.w3.org/2000/svg">
<g clip-path="url(#clip0_2073_662)">
<path d="M5.12181 6.05719V3.81335C5.12181 3.43729 5.4272 3.13226 5.80371 3.13226C6.18022 3.13226 6.48562 3.43729 6.48562 3.81335V6.05719V4.64905C6.48562 4.27298 6.79101 3.96796 7.16752 3.96796C7.54403 3.96796 7.84943 4.27298 7.84943 4.64905V6.05719H7.85361V5.44295C7.85361 5.09196 8.159 4.80365 8.53551 4.80365C8.90784 4.80365 9.21323 5.09196 9.21323 5.44295V7.52383C9.21323 8.79826 8.12135 9.82199 6.76173 9.82199H6.18441C5.60709 9.82199 5.09252 9.62978 4.68673 9.34146L1.89218 6.75917C1.62025 6.50429 1.62025 6.06555 1.89218 5.81066C2.1641 5.55577 2.57408 5.61009 2.84601 5.86498L3.758 6.69232V2.10018C3.75382 1.74919 4.05921 1.46088 4.43572 1.46088C4.81223 1.46088 5.11762 1.74919 5.11762 2.10018V6.05719" stroke="white" stroke-width="0.940625" stroke-linecap="round" stroke-linejoin="round"/>
</g>
<defs>
<clipPath id="clip0_2073_662">
<rect width="10.0333" height="10.0333" fill="white" transform="translate(0.434082 0.624756)"/>
</clipPath>
</defs>
</svg>
