<svg width="11" height="11" viewBox="0 0 11 11" fill="none" xmlns="http://www.w3.org/2000/svg">
<g clip-path="url(#clip0_2073_756)">
<path d="M5.09987 10.1097C7.40872 10.1097 9.28042 8.23801 9.28042 5.92915C9.28042 3.62029 7.40872 1.7486 5.09987 1.7486C2.79101 1.7486 0.919312 3.62029 0.919312 5.92915C0.919312 8.23801 2.79101 10.1097 5.09987 10.1097Z" stroke="white" stroke-width="0.940625" stroke-miterlimit="10" stroke-linecap="round" stroke-linejoin="round"/>
<path d="M5.10405 6.76528C5.10405 6.55625 5.10405 6.55625 5.10405 6.55625C5.11659 6.24271 5.51793 6.12148 5.9527 5.59473C6.10738 5.40242 6.22444 5.26446 6.29551 5.03035C6.41674 4.6541 6.32059 4.3322 6.29551 4.26531C6.27043 4.16916 6.15337 3.83889 5.81893 3.61314C5.54301 3.4292 5.27545 3.42084 5.1584 3.42084C5.05806 3.42084 4.83231 3.42084 4.58984 3.54625C4.38081 3.65495 4.2554 3.79709 4.19269 3.8807C3.94604 4.1817 3.87079 4.52032 3.8457 4.70009" stroke="white" stroke-width="0.940625" stroke-miterlimit="10" stroke-linecap="round" stroke-linejoin="round"/>
<path d="M5.0957 8.4375H5.10406" stroke="white" stroke-width="0.940625" stroke-miterlimit="10" stroke-linecap="round"/>
</g>
<defs>
<clipPath id="clip0_2073_756">
<rect width="10.0333" height="10.0333" fill="white" transform="translate(0.083252 0.912476)"/>
</clipPath>
</defs>
</svg>
