<svg width="1204" height="1132" viewBox="0 0 1204 1132" fill="none" xmlns="http://www.w3.org/2000/svg">
<rect opacity="0.3" x="894.558" y="447.587" width="165.888" height="165.888" transform="rotate(-45 894.558 447.587)" stroke="url(#paint0_angular_1_3202)" stroke-width="0.836111"/>
<rect opacity="0.1" width="1178.16" height="0.836111" transform="matrix(-0.747729 0.664004 0.747729 0.664004 1370.54 -54.5667)" fill="url(#paint1_linear_1_3202)"/>
<rect opacity="0.1" width="1178.16" height="0.836111" transform="matrix(0.747729 0.664004 -0.747729 0.664004 -163.634 -54.5667)" fill="url(#paint2_linear_1_3202)"/>
<rect opacity="0.1" width="1080.26" height="0.836088" transform="matrix(2.16865e-08 1 1 -8.81047e-08 1011.02 51.3916)" fill="url(#paint3_linear_1_3202)"/>
<rect opacity="0.1" x="195.887" y="51.3916" width="1080.26" height="0.836088" transform="rotate(90 195.887 51.3916)" fill="url(#paint4_linear_1_3202)"/>
<path opacity="0.1" d="M1297.81 328.651L1206.88 328.651L1184.72 306.494H1053.25L1011.86 265.106" stroke="url(#paint5_linear_1_3202)" stroke-width="0.836111"/>
<path opacity="0.1" d="M-90.8994 328.651L0.0276703 328.651L22.1846 306.494H153.663L195.051 265.106" stroke="url(#paint6_linear_1_3202)" stroke-width="0.836111"/>
<rect opacity="0.2" width="1178.16" height="0.836111" transform="matrix(-0.747729 0.664004 0.747729 0.664004 1130.56 -54.9154)" fill="url(#paint7_linear_1_3202)"/>
<rect opacity="0.2" width="1178.16" height="0.836111" transform="matrix(0.747729 0.664004 -0.747729 0.664004 76.3452 -54.9154)" fill="url(#paint8_linear_1_3202)"/>
<rect opacity="0.1" width="1670.55" height="0.836111" transform="matrix(-1 0 0 1 1506 446.751)" fill="url(#paint9_linear_1_3202)"/>
<rect opacity="0.1" x="-164.55" y="971.829" width="1670.55" height="0.836111" fill="url(#paint10_linear_1_3202)"/>
<defs>
<radialGradient id="paint0_angular_1_3202" cx="0" cy="0" r="1" gradientUnits="userSpaceOnUse" gradientTransform="translate(977.329 530.949) rotate(135) scale(117.892)">
<stop stop-color="white" stop-opacity="0.5"/>
<stop offset="1" stop-color="white" stop-opacity="0.05"/>
</radialGradient>
<linearGradient id="paint1_linear_1_3202" x1="0" y1="0" x2="768.538" y2="1.27057e-07" gradientUnits="userSpaceOnUse">
<stop stop-color="white"/>
<stop offset="1" stop-color="#D9D9D9" stop-opacity="0"/>
</linearGradient>
<linearGradient id="paint2_linear_1_3202" x1="0" y1="0" x2="768.538" y2="1.27057e-07" gradientUnits="userSpaceOnUse">
<stop stop-color="white"/>
<stop offset="1" stop-color="#D9D9D9" stop-opacity="0"/>
</linearGradient>
<linearGradient id="paint3_linear_1_3202" x1="0" y1="0" x2="704.67" y2="1.0682e-07" gradientUnits="userSpaceOnUse">
<stop stop-color="white"/>
<stop offset="1" stop-color="#D9D9D9" stop-opacity="0"/>
</linearGradient>
<linearGradient id="paint4_linear_1_3202" x1="195.887" y1="51.3916" x2="900.557" y2="51.3916" gradientUnits="userSpaceOnUse">
<stop stop-color="white"/>
<stop offset="1" stop-color="#D9D9D9" stop-opacity="0"/>
</linearGradient>
<linearGradient id="paint5_linear_1_3202" x1="1021.06" y1="289.562" x2="1327.07" y2="351.434" gradientUnits="userSpaceOnUse">
<stop stop-color="white"/>
<stop offset="1" stop-color="white" stop-opacity="0"/>
</linearGradient>
<linearGradient id="paint6_linear_1_3202" x1="185.854" y1="289.562" x2="-120.163" y2="351.434" gradientUnits="userSpaceOnUse">
<stop stop-color="white"/>
<stop offset="1" stop-color="white" stop-opacity="0"/>
</linearGradient>
<linearGradient id="paint7_linear_1_3202" x1="0" y1="0" x2="768.538" y2="1.27057e-07" gradientUnits="userSpaceOnUse">
<stop stop-color="white"/>
<stop offset="1" stop-color="#D9D9D9" stop-opacity="0"/>
</linearGradient>
<linearGradient id="paint8_linear_1_3202" x1="0" y1="0" x2="768.538" y2="1.27057e-07" gradientUnits="userSpaceOnUse">
<stop stop-color="white"/>
<stop offset="1" stop-color="#D9D9D9" stop-opacity="0"/>
</linearGradient>
<linearGradient id="paint9_linear_1_3202" x1="0" y1="0" x2="1089.73" y2="2.55449e-07" gradientUnits="userSpaceOnUse">
<stop stop-color="#D9D9D9"/>
<stop offset="1" stop-color="#D9D9D9" stop-opacity="0.5"/>
</linearGradient>
<linearGradient id="paint10_linear_1_3202" x1="-164.55" y1="971.829" x2="925.18" y2="971.829" gradientUnits="userSpaceOnUse">
<stop stop-color="#D9D9D9"/>
<stop offset="1" stop-color="#D9D9D9" stop-opacity="0.5"/>
</linearGradient>
</defs>
</svg>
