<svg width="11" height="11" viewBox="0 0 11 11" fill="none" xmlns="http://www.w3.org/2000/svg">
<g clip-path="url(#clip0_2073_689)">
<path d="M5.45082 10.022C7.75968 10.022 9.63138 8.1503 9.63138 5.84144C9.63138 3.53259 7.75968 1.66089 5.45082 1.66089C3.14196 1.66089 1.27026 3.53259 1.27026 5.84144C1.27026 8.1503 3.14196 10.022 5.45082 10.022Z" stroke="white" stroke-width="0.940625" stroke-miterlimit="10" stroke-linecap="round" stroke-linejoin="round"/>
<path d="M5.39854 5.84148V5.8158L5.42648 5.83177L5.44347 5.84148L5.42648 5.85119L5.39854 5.86716V5.84148Z" stroke="white" stroke-width="0.940625"/>
<path d="M5.45072 8.3498C6.83603 8.3498 7.95905 7.22678 7.95905 5.84146C7.95905 4.45615 6.83603 3.33313 5.45072 3.33313C4.0654 3.33313 2.94238 4.45615 2.94238 5.84146C2.94238 7.22678 4.0654 8.3498 5.45072 8.3498Z" stroke="white" stroke-width="0.940625" stroke-miterlimit="10" stroke-linecap="round" stroke-linejoin="round"/>
</g>
<defs>
<clipPath id="clip0_2073_689">
<rect width="10.0333" height="10.0333" fill="white" transform="translate(0.434082 0.824768)"/>
</clipPath>
</defs>
</svg>
