<svg width="11" height="11" viewBox="0 0 11 11" fill="none" xmlns="http://www.w3.org/2000/svg">
<path d="M2.5245 5.99279C2.75443 5.99279 2.94256 5.80466 2.94256 5.57473C2.94256 5.3448 2.75443 5.15668 2.5245 5.15668C2.29457 5.15668 2.10645 5.3448 2.10645 5.57473C2.10645 5.80466 2.29457 5.99279 2.5245 5.99279Z" stroke="white" stroke-width="0.940625" stroke-miterlimit="10" stroke-linecap="round" stroke-linejoin="round"/>
<path d="M8.37728 5.99279C8.60721 5.99279 8.79534 5.80466 8.79534 5.57473C8.79534 5.3448 8.60721 5.15668 8.37728 5.15668C8.14735 5.15668 7.95923 5.3448 7.95923 5.57473C7.95923 5.80466 8.14735 5.99279 8.37728 5.99279Z" stroke="white" stroke-width="0.940625" stroke-miterlimit="10" stroke-linecap="round" stroke-linejoin="round"/>
<path d="M5.45077 8.91918C5.6807 8.91918 5.86883 8.73105 5.86883 8.50112C5.86883 8.27119 5.6807 8.08307 5.45077 8.08307C5.22084 8.08307 5.03271 8.27119 5.03271 8.50112C5.03271 8.73105 5.22084 8.91918 5.45077 8.91918Z" stroke="white" stroke-width="0.940625" stroke-miterlimit="10" stroke-linecap="round" stroke-linejoin="round"/>
<path d="M5.45077 3.0664C5.6807 3.0664 5.86883 2.87827 5.86883 2.64834C5.86883 2.41841 5.6807 2.23029 5.45077 2.23029C5.22084 2.23029 5.03271 2.41841 5.03271 2.64834C5.03271 2.87827 5.22084 3.0664 5.45077 3.0664Z" stroke="white" stroke-width="0.940625" stroke-miterlimit="10" stroke-linecap="round" stroke-linejoin="round"/>
<path d="M5.45077 5.99279C5.6807 5.99279 5.86883 5.80466 5.86883 5.57473C5.86883 5.3448 5.6807 5.15668 5.45077 5.15668C5.22084 5.15668 5.03271 5.3448 5.03271 5.57473C5.03271 5.80466 5.22084 5.99279 5.45077 5.99279Z" stroke="white" stroke-width="0.940625" stroke-miterlimit="10" stroke-linecap="round" stroke-linejoin="round"/>
<path d="M2.5245 8.91918C2.75443 8.91918 2.94256 8.73105 2.94256 8.50112C2.94256 8.27119 2.75443 8.08307 2.5245 8.08307C2.29457 8.08307 2.10645 8.27119 2.10645 8.50112C2.10645 8.73105 2.29457 8.91918 2.5245 8.91918Z" stroke="white" stroke-width="0.940625" stroke-miterlimit="10" stroke-linecap="round" stroke-linejoin="round"/>
<path d="M8.37728 8.91918C8.60721 8.91918 8.79534 8.73105 8.79534 8.50112C8.79534 8.27119 8.60721 8.08307 8.37728 8.08307C8.14735 8.08307 7.95923 8.27119 7.95923 8.50112C7.95923 8.73105 8.14735 8.91918 8.37728 8.91918Z" stroke="white" stroke-width="0.940625" stroke-miterlimit="10" stroke-linecap="round" stroke-linejoin="round"/>
<path d="M2.5245 3.0664C2.75443 3.0664 2.94256 2.87827 2.94256 2.64834C2.94256 2.41841 2.75443 2.23029 2.5245 2.23029C2.29457 2.23029 2.10645 2.41841 2.10645 2.64834C2.10645 2.87827 2.29457 3.0664 2.5245 3.0664Z" stroke="white" stroke-width="0.940625" stroke-miterlimit="10" stroke-linecap="round" stroke-linejoin="round"/>
<path d="M8.37728 3.0664C8.60721 3.0664 8.79534 2.87827 8.79534 2.64834C8.79534 2.41841 8.60721 2.23029 8.37728 2.23029C8.14735 2.23029 7.95923 2.41841 7.95923 2.64834C7.95923 2.87827 8.14735 3.0664 8.37728 3.0664Z" stroke="white" stroke-width="0.940625" stroke-miterlimit="10" stroke-linecap="round" stroke-linejoin="round"/>
</svg>
