<svg width="11" height="11" viewBox="0 0 11 11" fill="none" xmlns="http://www.w3.org/2000/svg">
<g clip-path="url(#clip0_2073_697)">
<path d="M8.79541 5.07206V3.39984" stroke="white" stroke-width="0.940625" stroke-miterlimit="10" stroke-linecap="round" stroke-linejoin="round"/>
<path d="M8.79541 8.41649V6.74426" stroke="white" stroke-width="0.940625" stroke-miterlimit="10" stroke-linecap="round" stroke-linejoin="round"/>
<path d="M2.10645 5.07206V3.39984" stroke="white" stroke-width="0.940625" stroke-miterlimit="10" stroke-linecap="round" stroke-linejoin="round"/>
<path d="M2.10645 8.41649V6.74426" stroke="white" stroke-width="0.940625" stroke-miterlimit="10" stroke-linecap="round" stroke-linejoin="round"/>
<path d="M4.86133 5.31867L2.6958 3.15314" stroke="white" stroke-width="0.940625" stroke-miterlimit="10" stroke-linecap="round" stroke-linejoin="round"/>
<path d="M8.20581 8.66315L6.04028 6.49762" stroke="white" stroke-width="0.940625" stroke-miterlimit="10" stroke-linecap="round" stroke-linejoin="round"/>
<path d="M2.10637 3.39982C2.56815 3.39982 2.94249 3.02548 2.94249 2.56371C2.94249 2.10194 2.56815 1.7276 2.10637 1.7276C1.6446 1.7276 1.27026 2.10194 1.27026 2.56371C1.27026 3.02548 1.6446 3.39982 2.10637 3.39982Z" stroke="white" stroke-width="0.940625" stroke-miterlimit="10" stroke-linecap="round" stroke-linejoin="round"/>
<path d="M8.79534 3.39982C9.25711 3.39982 9.63145 3.02548 9.63145 2.56371C9.63145 2.10194 9.25711 1.7276 8.79534 1.7276C8.33357 1.7276 7.95923 2.10194 7.95923 2.56371C7.95923 3.02548 8.33357 3.39982 8.79534 3.39982Z" stroke="white" stroke-width="0.940625" stroke-miterlimit="10" stroke-linecap="round" stroke-linejoin="round"/>
<path d="M2.10637 6.74431C2.56815 6.74431 2.94249 6.36997 2.94249 5.90819C2.94249 5.44642 2.56815 5.07208 2.10637 5.07208C1.6446 5.07208 1.27026 5.44642 1.27026 5.90819C1.27026 6.36997 1.6446 6.74431 2.10637 6.74431Z" stroke="white" stroke-width="0.940625" stroke-miterlimit="10" stroke-linecap="round" stroke-linejoin="round"/>
<path d="M5.45086 6.74431C5.91263 6.74431 6.28697 6.36997 6.28697 5.90819C6.28697 5.44642 5.91263 5.07208 5.45086 5.07208C4.98909 5.07208 4.61475 5.44642 4.61475 5.90819C4.61475 6.36997 4.98909 6.74431 5.45086 6.74431Z" stroke="white" stroke-width="0.940625" stroke-miterlimit="10" stroke-linecap="round" stroke-linejoin="round"/>
<path d="M8.79534 6.74431C9.25711 6.74431 9.63145 6.36997 9.63145 5.90819C9.63145 5.44642 9.25711 5.07208 8.79534 5.07208C8.33357 5.07208 7.95923 5.44642 7.95923 5.90819C7.95923 6.36997 8.33357 6.74431 8.79534 6.74431Z" stroke="white" stroke-width="0.940625" stroke-miterlimit="10" stroke-linecap="round" stroke-linejoin="round"/>
<path d="M2.10637 10.0887C2.56815 10.0887 2.94249 9.71439 2.94249 9.25262C2.94249 8.79084 2.56815 8.4165 2.10637 8.4165C1.6446 8.4165 1.27026 8.79084 1.27026 9.25262C1.27026 9.71439 1.6446 10.0887 2.10637 10.0887Z" stroke="white" stroke-width="0.940625" stroke-miterlimit="10" stroke-linecap="round" stroke-linejoin="round"/>
<path d="M8.79534 10.0887C9.25711 10.0887 9.63145 9.71439 9.63145 9.25262C9.63145 8.79084 9.25711 8.4165 8.79534 8.4165C8.33357 8.4165 7.95923 8.79084 7.95923 9.25262C7.95923 9.71439 8.33357 10.0887 8.79534 10.0887Z" stroke="white" stroke-width="0.940625" stroke-miterlimit="10" stroke-linecap="round" stroke-linejoin="round"/>
<path d="M5.45086 3.39982C5.91263 3.39982 6.28697 3.02548 6.28697 2.56371C6.28697 2.10194 5.91263 1.7276 5.45086 1.7276C4.98909 1.7276 4.61475 2.10194 4.61475 2.56371C4.61475 3.02548 4.98909 3.39982 5.45086 3.39982Z" stroke="white" stroke-width="0.940625" stroke-miterlimit="10" stroke-linecap="round" stroke-linejoin="round"/>
<path d="M5.45086 10.0887C5.91263 10.0887 6.28697 9.71439 6.28697 9.25262C6.28697 8.79084 5.91263 8.4165 5.45086 8.4165C4.98909 8.4165 4.61475 8.79084 4.61475 9.25262C4.61475 9.71439 4.98909 10.0887 5.45086 10.0887Z" stroke="white" stroke-width="0.940625" stroke-miterlimit="10" stroke-linecap="round" stroke-linejoin="round"/>
</g>
<defs>
<clipPath id="clip0_2073_697">
<rect width="10.0333" height="10.0333" fill="white" transform="translate(0.434082 0.891479)"/>
</clipPath>
</defs>
</svg>
