<svg width="11" height="11" viewBox="0 0 11 11" fill="none" xmlns="http://www.w3.org/2000/svg">
<g clip-path="url(#clip0_2073_749)">
<path d="M5.88168 2.89013L5.75208 1.86589C5.73954 1.76138 5.65175 1.68195 5.54305 1.68195H4.2429C4.13839 1.68195 4.04641 1.76138 4.03387 1.86589L3.921 2.76471C3.91264 2.83996 3.85829 2.90685 3.78722 2.93193C3.43605 3.06153 3.10161 3.2622 2.81315 3.52139L1.85998 3.12006C1.76383 3.07825 1.65095 3.11588 1.59661 3.20785L0.944441 4.3366C0.894274 4.42857 0.919358 4.54563 1.00297 4.60833L1.82654 5.23124C1.73875 5.65347 1.73875 6.08407 1.82236 6.49377H1.82654L1.00297 7.11667C0.919358 7.17938 0.894274 7.29643 0.948622 7.3884L1.60079 8.51715C1.65514 8.60913 1.76801 8.64675 1.86416 8.60495L2.81733 8.20361L2.81315 8.20779C2.96783 8.34575 3.14341 8.47117 3.33154 8.57986C3.51966 8.68856 3.71197 8.77635 3.91264 8.84324V8.83488L4.04223 9.85911C4.04641 9.96363 4.13839 10.0431 4.2429 10.0431H5.54723C5.65175 10.0431 5.73954 9.96363 5.75626 9.85911L5.86914 8.96029C5.8775 8.88504 5.93184 8.81815 6.00291 8.79307C6.35408 8.66347 6.68852 8.46281 6.97698 8.20361L7.93015 8.60495C8.0263 8.64675 8.13918 8.60913 8.19352 8.51715L8.84569 7.3884C8.90004 7.29643 8.87495 7.17938 8.79134 7.11667L7.96777 6.49377C8.05557 6.07153 8.05557 5.64093 7.97196 5.23124H7.96777L8.78298 4.60833C8.86659 4.54563 8.89168 4.42857 8.83733 4.3366L8.18516 3.20785C8.13082 3.11588 8.01794 3.07825 7.92179 3.12006L6.9728 3.52139L6.97698 3.51721C6.8223 3.37925 6.64672 3.25383 6.45859 3.14514C6.27047 3.03645 6.07816 2.94865 5.8775 2.88177" stroke="white" stroke-width="0.940625" stroke-miterlimit="10" stroke-linecap="round" stroke-linejoin="round"/>
<path d="M4.89512 7.53475C5.81867 7.53475 6.56735 6.78607 6.56735 5.86253C6.56735 4.93899 5.81867 4.19031 4.89512 4.19031C3.97158 4.19031 3.2229 4.93899 3.2229 5.86253C3.2229 6.78607 3.97158 7.53475 4.89512 7.53475Z" stroke="white" stroke-width="0.940625" stroke-miterlimit="10" stroke-linecap="round" stroke-linejoin="round"/>
</g>
<defs>
<clipPath id="clip0_2073_749">
<rect width="10.0333" height="10.0333" fill="white" transform="translate(0.083252 0.845825)"/>
</clipPath>
</defs>
</svg>
