<svg width="11" height="11" viewBox="0 0 11 11" fill="none" xmlns="http://www.w3.org/2000/svg">
<g clip-path="url(#clip0_2113_967)">
<path d="M6.46576 5.26862H1.4491" stroke="white" stroke-width="0.940625" stroke-miterlimit="10" stroke-linecap="round" stroke-linejoin="round"/>
<path d="M9.81016 5.26862H8.13794" stroke="white" stroke-width="0.940625" stroke-miterlimit="10" stroke-linecap="round" stroke-linejoin="round"/>
<path d="M9.81025 2.34222H4.79358" stroke="white" stroke-width="0.940625" stroke-miterlimit="10" stroke-linecap="round" stroke-linejoin="round"/>
<path d="M3.12132 2.34222H1.4491" stroke="white" stroke-width="0.940625" stroke-miterlimit="10" stroke-linecap="round" stroke-linejoin="round"/>
<path d="M9.81025 8.19501H4.79358" stroke="white" stroke-width="0.940625" stroke-miterlimit="10" stroke-linecap="round" stroke-linejoin="round"/>
<path d="M3.12132 8.19501H1.4491" stroke="white" stroke-width="0.940625" stroke-miterlimit="10" stroke-linecap="round" stroke-linejoin="round"/>
<path d="M7.30193 6.10472C7.7637 6.10472 8.13804 5.73038 8.13804 5.26861C8.13804 4.80683 7.7637 4.4325 7.30193 4.4325C6.84016 4.4325 6.46582 4.80683 6.46582 5.26861C6.46582 5.73038 6.84016 6.10472 7.30193 6.10472Z" stroke="white" stroke-width="0.940625" stroke-miterlimit="10" stroke-linecap="round" stroke-linejoin="round"/>
<path d="M3.95745 3.17833C4.41922 3.17833 4.79356 2.80399 4.79356 2.34221C4.79356 1.88044 4.41922 1.5061 3.95745 1.5061C3.49568 1.5061 3.12134 1.88044 3.12134 2.34221C3.12134 2.80399 3.49568 3.17833 3.95745 3.17833Z" stroke="white" stroke-width="0.940625" stroke-miterlimit="10" stroke-linecap="round" stroke-linejoin="round"/>
<path d="M3.95745 9.03111C4.41922 9.03111 4.79356 8.65677 4.79356 8.195C4.79356 7.73323 4.41922 7.35889 3.95745 7.35889C3.49568 7.35889 3.12134 7.73323 3.12134 8.195C3.12134 8.65677 3.49568 9.03111 3.95745 9.03111Z" stroke="white" stroke-width="0.940625" stroke-miterlimit="10" stroke-linecap="round" stroke-linejoin="round"/>
</g>
<defs>
<clipPath id="clip0_2113_967">
<rect width="10.0333" height="10.0333" fill="white" transform="translate(0.613037 0.251953)"/>
</clipPath>
</defs>
</svg>
