<svg width="13" height="13" viewBox="0 0 13 13" fill="none" xmlns="http://www.w3.org/2000/svg">
<path d="M6.47753 8.93709C6.47753 8.52492 6.65417 8.46604 7.06634 8.70157C7.77291 9.11373 8.47948 9.46702 8.47948 9.46702C8.47948 9.2315 8.71501 9.05485 9.12718 9.17261C9.53934 9.29038 9.95151 9.34926 9.95151 9.34926C9.95151 9.34926 9.71599 8.81933 9.59822 8.58381C9.42158 8.17164 9.59822 7.93612 9.77487 7.87723C9.77487 7.87723 9.53934 7.70059 9.3627 7.58283C9.00941 7.34731 9.06829 7.0529 9.42158 6.93514C9.89263 6.69962 10.5403 6.46409 10.5403 6.46409C10.3637 6.34633 10.1282 6.05193 10.3637 5.63976C10.5992 5.28647 11.0114 4.75655 11.0114 4.75655C11.0114 4.75655 10.3637 4.75655 9.89263 4.75655C9.48046 4.75655 9.3627 4.40326 9.3627 4.16774C9.3627 4.16774 8.71501 4.63878 8.24396 4.93319C7.83179 5.22759 7.47851 4.93319 7.53739 4.46214C7.65515 3.75557 7.71403 2.93124 7.71403 2.93124C7.47851 3.16676 7.06634 3.10788 6.83081 2.7546C6.53641 2.16579 6.242 1.45922 6.242 1.45922C6.242 1.45922 5.9476 2.16579 5.65319 2.7546C5.47655 3.10788 5.06438 3.16676 4.82886 2.99012C4.82886 2.99012 4.88774 3.81445 5.0055 4.52102C5.06438 4.93319 4.7111 5.22759 4.29893 4.93319C3.82788 4.63878 3.12131 4.16774 3.12131 4.16774C3.12131 4.40326 3.00354 4.69767 2.59138 4.75655C2.12033 4.75655 1.47264 4.75655 1.47264 4.75655C1.47264 4.75655 1.8848 5.28647 2.12033 5.63976C2.35585 5.99305 2.12033 6.34633 1.94369 6.46409C1.94369 6.46409 2.5325 6.7585 3.06243 6.93514C3.41571 7.11178 3.53347 7.34731 3.12131 7.58283C3.00354 7.70059 2.70914 7.87723 2.70914 7.87723C2.94466 7.93612 3.12131 8.17164 2.94466 8.58381C2.8269 8.81933 2.59138 9.34926 2.59138 9.34926C2.59138 9.34926 3.00354 9.2315 3.41571 9.17261C3.82788 9.05485 4.00452 9.29038 4.0634 9.46702C4.0634 9.46702 4.76998 9.05485 5.47655 8.70157C5.82984 8.46604 6.06536 8.58381 6.06536 8.93709V9.93807C6.06536 10.5269 5.9476 11.1157 5.77096 11.469C3.12131 11.1746 0.883826 9.05485 0.883826 6.22857C0.883826 3.3434 3.29795 0.988169 6.30088 0.988169C9.30382 0.988169 11.7179 3.3434 11.7179 6.22857C11.7179 8.93709 9.59822 11.1746 6.8897 11.469V12.1755C10.0693 11.8811 12.5423 9.34926 12.5423 6.22857C12.5423 2.87236 9.71599 0.222717 6.242 0.222717C2.8269 0.222717 0.000610352 2.87236 0.000610352 6.16969C0.000610352 9.05485 2.17921 11.469 5.06438 11.9989C5.53543 12.1167 5.82984 12.1755 6.12424 12.4699C6.41865 11.8811 6.47753 10.7035 6.47753 10.0558V8.93709Z" fill="#F01428"/>
</svg>
