<svg width="9" height="10" viewBox="0 0 9 10" fill="none" xmlns="http://www.w3.org/2000/svg">
<path d="M4.12181 5.05719V2.81335C4.12181 2.43729 4.4272 2.13226 4.80371 2.13226C5.18022 2.13226 5.48562 2.43729 5.48562 2.81335V5.05719V3.64905C5.48562 3.27298 5.79101 2.96796 6.16752 2.96796C6.54403 2.96796 6.84943 3.27298 6.84943 3.64905V5.05719H6.85361V4.44295C6.85361 4.09196 7.159 3.80365 7.53551 3.80365C7.90784 3.80365 8.21323 4.09196 8.21323 4.44295V6.52383C8.21323 7.79826 7.12135 8.82199 5.76173 8.82199H5.18441C4.60709 8.82199 4.09252 8.62978 3.68673 8.34146L0.892176 5.75917C0.620251 5.50429 0.620251 5.06555 0.892176 4.81066C1.1641 4.55577 1.57408 4.61009 1.84601 4.86498L2.758 5.69232V1.10018C2.75382 0.749191 3.05921 0.460876 3.43572 0.460876C3.81223 0.460876 4.11762 0.749191 4.11762 1.10018V5.05719" stroke="white" stroke-width="0.940625" stroke-linecap="round" stroke-linejoin="round"/>
</svg>
